<?xml version="1.0" encoding="utf-8"?>
<!-- Generator: Adobe Illustrator 27.3.1, SVG Export Plug-In . SVG Version: 6.00 Build 0)  -->
<svg version="1.1" id="Layer_1" xmlns="http://www.w3.org/2000/svg" xmlns:xlink="http://www.w3.org/1999/xlink" x="0px" y="0px"
	 viewBox="0 0 700 700" style="enable-background:new 0 0 700 700;" xml:space="preserve">
<path fill="#FFFFFF" d="M598.5,427.3l-29.8-169.8c-3.5-21-15.8-38.5-31.5-50.7c-15.8-10.5-33.2-14-50.8-8.8c-14,3.5-28,12.2-36.8,24.5H250.2
	c-8.8-12.2-21-21-36.8-24.5c-17.5-3.5-35,0-50.8,8.8c-17.5,10.5-28,29.8-31.5,50.7l-29.8,169.8c-5.2,33.2,14,66.5,45.5,73.5
	s63-12.2,71.8-45.5l7-24.5c10.5,8.8,22.8,14,36.8,14c31.5,0,57.8-26.2,57.8-57.8h61.2c0,31.5,26.2,57.8,57.8,57.8
	c14,0,26.2-5.2,36.8-12.2l7,24.5c7,28,31.5,47.2,57.8,47.2c3.5,0,8.8,0,12.2-1.8C584.5,493.8,603.8,460.6,598.5,427.3z M227.5,313.6
	v1.8c0,10.5-7,17.5-17.5,17.5s-17.5-7-17.5-17.5v-1.8h-1.8c-10.5,0-17.5-7-17.5-17.5s7-17.5,17.5-17.5h1.8v-1.8
	c0-10.5,7-17.5,17.5-17.5s17.5,7,17.5,17.5v1.8h1.8c10.5,0,17.5,7,17.5,17.5s-7,17.5-17.5,17.5H227.5z M260.8,408.1
	c-12.2,0-22.8-10.5-22.8-22.8v-7l1.8-3.5c3.5-8.8,12.2-14,21-14s17.5,5.2,21,14c1.8,3.5,1.8,7,1.8,10.5
	C283.5,397.6,273,408.1,260.8,408.1z M367.5,313.6h-35c-10.5,0-17.5-7-17.5-17.5s7-17.5,17.5-17.5h35c10.5,0,17.5,7,17.5,17.5
	S378,313.6,367.5,313.6z M439.2,408.1c-12.2,0-22.8-10.5-22.8-22.8c0-3.5,0-7,1.8-10.5c3.5-8.8,12.2-14,21-14c1.8,0,5.2,0,7,1.8h1.8
	c1.8,0,3.5,1.8,3.5,1.8l1.8,1.8c1.8,0,1.8,1.8,3.5,1.8l1.8,1.8c0,1.8,1.8,1.8,1.8,3.5v1.8l1.8,5.2v3.5
	C463.8,397.6,451.5,408.1,439.2,408.1z M509.2,313.6h-1.8v1.8c0,10.5-7,17.5-17.5,17.5s-17.5-7-17.5-17.5v-1.8h-1.8
	c-10.5,0-17.5-7-17.5-17.5s7-17.5,17.5-17.5h1.8v-1.8c0-10.5,7-17.5,17.5-17.5s17.5,7,17.5,17.5v1.8h1.8c10.5,0,17.5,7,17.5,17.5
	S518,313.6,509.2,313.6z"/>
</svg>
