<?xml version="1.0" encoding="utf-8"?>
<!-- Generator: Adobe Illustrator 27.3.1, SVG Export Plug-In . SVG Version: 6.00 Build 0)  -->
<svg version="1.1" id="Layer_1" xmlns="http://www.w3.org/2000/svg" xmlns:xlink="http://www.w3.org/1999/xlink" x="0px" y="0px"
	 viewBox="0 0 700 700" style="enable-background:new 0 0 700 700;" xml:space="preserve">
<g>
	<path fill="currentColor" d="M566.8,341.3c-9.8,0-19.2,3.9-26.1,10.8c-6.9,6.9-10.8,16.3-10.8,26.1v151.7H170.1V170.1h151.7c13.2,0,25.4-7,32-18.5
		c6.6-11.4,6.6-25.5,0-36.9c-6.6-11.4-18.8-18.5-32-18.5H105c-4.8,0-8.8,3.9-8.8,8.7v490c0,2.3,0.9,4.5,2.6,6.2s3.9,2.6,6.2,2.6h490
		c2.3,0,4.5-0.9,6.2-2.6s2.6-3.9,2.6-6.2V378.2c0-9.8-3.9-19.2-10.8-26.1C586,345.1,576.6,341.3,566.8,341.3L566.8,341.3z"/>
	<path fill="currentColor" d="M276.2,333.9l-22.4,101.7c-0.6,2.6,0.1,5.4,1.8,7.5c1.7,2.1,4.3,3.3,7,3.2h1.8L366,424.1c1.6-0.3,3.1-1.1,4.3-2.4
		l214.4-214.6c16.4-16.4,22.8-40.3,16.8-62.8c-6-22.4-23.5-39.9-45.9-45.9c-22.4-6-46.3,0.4-62.8,16.8L278.5,329.6
		C277.3,330.8,276.5,332.3,276.2,333.9L276.2,333.9z M505.1,127.7c12-12,29.5-16.7,45.9-12.3c16.4,4.4,29.2,17.2,33.6,33.6
		c4.4,16.4-0.3,33.9-12.3,45.9l-42,42l-67.2-67.2L505.1,127.7z"/>
</g>
</svg>
