<?xml version="1.0" encoding="utf-8"?>
<!-- Generator: Adobe Illustrator 27.3.1, SVG Export Plug-In . SVG Version: 6.00 Build 0)  -->
<svg version="1.1" id="Layer_1" xmlns="http://www.w3.org/2000/svg" xmlns:xlink="http://www.w3.org/1999/xlink" x="0px" y="0px"
	 viewBox="0 0 700 700" style="enable-background:new 0 0 700 700;" xml:space="preserve">
<style type="text/css">
	.st0{fill-rule:evenodd;clip-rule:evenodd;fill:#FFFFFF;}
</style>
<g>
	<path class="st0" d="M599.7,500.7c0,4.8-3.8,8.6-8.6,8.6H332.8c-4.6,0-8.6-3.8-8.6-8.6c0-76.1,61.7-137.8,137.8-137.8
		S599.7,424.6,599.7,500.7L599.7,500.7z"/>
	<path class="st0" d="M461.9,345.7c-42.7,0-77.5-34.7-77.5-77.5s34.7-77.5,77.5-77.5s77.5,34.7,77.5,77.5S504.7,345.7,461.9,345.7
		L461.9,345.7z"/>
	<path class="st0" d="M375.8,500.7c0,4.8-3.8,8.6-8.6,8.6H108.9c-4.6,0-8.6-3.8-8.6-8.6c0-76.1,61.7-137.8,137.8-137.8
		S375.8,424.6,375.8,500.7L375.8,500.7z"/>
	<path class="st0" d="M238.1,345.7c-42.7,0-77.5-34.7-77.5-77.5s34.7-77.5,77.5-77.5s77.5,34.7,77.5,77.5S280.8,345.7,238.1,345.7
		L238.1,345.7z"/>
</g>
</svg>
